<svg width="14" height="9" viewBox="0 0 14 9" fill="none" xmlns="http://www.w3.org/2000/svg"> <path d="M6.99988 6.42383L1.9725 0.977289L1.97249 0.977274C1.84077 0.834603 1.65766 0.750261 1.46207 0.750261C1.26648 0.750261 1.08336 0.834603 0.951647 0.977273M6.99988 6.42383L7.5103 8.02273C7.44527 8.09328 7.36695 8.15043 7.27924 8.18985L7.17675 7.96183L7.27924 8.18985C7.19137 8.22935 7.09637 8.25 6.99988 8.25C6.90339 8.25 6.80839 8.22935 6.72052 8.18985L6.82301 7.96183L6.72051 8.18985C6.63279 8.15042 6.55446 8.09326 6.48943 8.0227C6.48937 8.02263 6.48931 8.02256 6.48925 8.0225L0.951647 2.02426C0.820553 1.88226 0.75 1.69365 0.75 1.50077C0.75 1.30788 0.820553 1.11927 0.951647 0.977273M6.99988 6.42383L12.0271 0.977505C12.0271 0.977464 12.0271 0.977422 12.0272 0.977381L6.99988 6.42383ZM0.951647 0.977273L1.13534 1.14686L0.951647 0.977273ZM7.51051 8.0225L13.0479 2.02449C13.0479 2.02444 13.048 2.0244 13.048 2.02436L7.51051 8.0225Z" fill="#E8E8E8" stroke="#E8E8E8" stroke-width="0.5"/> </svg>