<svg width="18" height="24" viewBox="0 0 18 24" fill="none" xmlns="http://www.w3.org/2000/svg">
    <path d="M0 3.00005C0 2.20439 0.31607 1.44131 0.87868 0.878694C1.44129 0.316076 2.20435 0 3 0L15 0C15.7956 0 16.5587 0.316076 17.1213 0.878694C17.6839 1.44131 18 2.20439 18 3.00005V23.2504C17.9999 23.386 17.9631 23.5191 17.8933 23.6355C17.8236 23.7519 17.7236 23.8472 17.604 23.9112C17.4844 23.9752 17.3497 24.0056 17.2142 23.9991C17.0787 23.9927 16.9474 23.9495 16.8345 23.8744L9 19.6518L1.1655 23.8744C1.05256 23.9495 0.921345 23.9927 0.785837 23.9991C0.650329 24.0056 0.5156 23.9752 0.395999 23.9112C0.276399 23.8472 0.176406 23.7519 0.106671 23.6355C0.036936 23.5191 7.00806e-05 23.386 0 23.2504V3.00005ZM3 1.50002C2.60218 1.50002 2.22064 1.65806 1.93934 1.93937C1.65804 2.22068 1.5 2.60222 1.5 3.00005V21.8494L8.5845 18.1263C8.70759 18.0444 8.85215 18.0007 9 18.0007C9.14785 18.0007 9.29241 18.0444 9.4155 18.1263L16.5 21.8494V3.00005C16.5 2.60222 16.342 2.22068 16.0607 1.93937C15.7794 1.65806 15.3978 1.50002 15 1.50002H3Z" fill="black"/>
</svg>
